<?xml version="1.0" encoding="UTF-8" standalone="no"?>
<svg width="456" height="456" viewBox="0 0 456 456" version="1.1" xmlns="http://www.w3.org/2000/svg">
  <defs>
    <linearGradient id="bg" x1="0" y1="0" x2="1" y2="1">
      <stop offset="0%" stop-color="#071826" />
      <stop offset="100%" stop-color="#0d3a54" />
    </linearGradient>
    <radialGradient id="halo" cx="0.5" cy="0.42" r="0.58">
      <stop offset="0%" stop-color="#35f4de" stop-opacity="0.34" />
      <stop offset="100%" stop-color="#35f4de" stop-opacity="0" />
    </radialGradient>
  </defs>

  <rect x="0" y="0" width="456" height="456" rx="92" fill="url(#bg)" />
  <circle cx="228" cy="190" r="180" fill="url(#halo)" />

  <path
    d="M74 294C120 258 170 304 228 268C286 232 334 252 382 208L382 260C334 296 286 280 228 316C170 352 120 316 74 352Z"
    fill="#1fe0cf" />

  <path
    d="M196 94H288L252 172H312L180 334L222 228H152Z"
    fill="#ffd166" />

  <path
    d="M74 358C120 322 170 366 228 332C286 298 334 316 382 276V332C334 366 286 352 228 386C170 420 120 386 74 420Z"
    fill="#118a91"
    fill-opacity="0.5" />
</svg>
